<svg xmlns="http://www.w3.org/2000/svg" width="204.086" height="143.185" viewBox="0 0 204.086 143.185"><defs><style>.a{fill:#fff;}.b{fill:#e6d61a;}</style></defs><g transform="translate(1016.093 -997.384)"><path class="a" d="M-812.062,997.384l-204.031,13.185.047,1.346,204.039-12.962Z"/><path class="b" d="M-921.815,1003.544a1.99,1.99,0,0,0-1.624-.7,5.9,5.9,0,0,0-3.351,1.4c-.3.53-2.008,5.468-2.443,6.763-.394,1.175-1.821,6.805-2.262,9.454l-.247,2.8c-.074,1.9-.043,3.976-.009,4.948a27.692,27.692,0,0,1-1.314,7.044,29.241,29.241,0,0,0-2.445,4.444c-1.186,2.68.923,5.806,1.449,7.146s1.333,6.113,1.791,7.776,2.408,2.555,2.641,6.945-.083,4.482-.444,5.615-.543,5.057-2.268,8.316-9.949,19.7-11.674,22.96a55.492,55.492,0,0,1-5.856,8.682c-1.764,2.141-2.119,3.433-1.936,4.067s1.891,1.533,1.891,1.533-.321,2.251-.928,5.471-2.055,5.27-3.972,7.656-3.344,3.876-3.438,5.758.153,3.233,1.2,3.557,2.688-.894,3.732-3.05,1.078-1.2,2.8-2.376,1.291-1.965,1.252-4.243,4.4-10.23,4.4-10.23a.765.765,0,0,0,1.364.152,86.38,86.38,0,0,0,5.528-10.031c.438-1.214,6.5-8.544,7.936-10.913a22.152,22.152,0,0,1,4.631-4.8l6.711-2.474a25.953,25.953,0,0,0,2.187,5.362c1.538,2.825,2.839,3.42,3.364,7a10.942,10.942,0,0,1-2.544,9.606c-2.684,3.292-1.964,5.586-1.964,5.586l.539.542s-3.49,5.4-4.745,7.243-2.9,1.621-3.81,3.132-1.109,2.6-.108,3.763,2.457,1.633,3.1,2.93.371,3.746,1.118,5.679.9,2.848,1.964,2.411,2.325-.961,2.67-3.692-.666-4.176-.752-6.651a19.426,19.426,0,0,1,.7-6.343c.57-2.02,4.364-5.591,4.364-5.591l3.16-1.11s3.876-6.974,5.152-8.218a8.956,8.956,0,0,0,2.965-6.7c-.111-3.2-4.042-19.613-5.253-22.21s-1.626-3.062-1.366-3.631,1.133-6.517,1.133-6.517a5.894,5.894,0,0,0,4.465-1.515c1.816-1.823,7.416-6.338,8.233-7.006a11.64,11.64,0,0,1,2.194-1.276,6.3,6.3,0,0,0,2.168.244c.795-.148,1.171-.8,2-.069a2.038,2.038,0,0,1,.738,1.613s1.054.4,1.194-.162,1.36-2.287,1.319-3.445a3.174,3.174,0,0,0-1.691-2.62,9.868,9.868,0,0,0-2.387-.8,6.7,6.7,0,0,0-3.822.493,4.443,4.443,0,0,0-1.548,1.454,62.608,62.608,0,0,1-6.714,4.713c-1.295.685-5.52,2.192-5.52,2.192a25.345,25.345,0,0,0-1.274-4.394c-.782-1.812-1.55-2.025-2.163-3.564s-.167-3.632-1.752-5.5-4.874-4.468-6.649-4.886-1.363-.112-1.892-1.533-.877-2.208-.209-3.671,2.254-1.879,1.724-3.3-3.6-2.433-3.772-2.667a2.332,2.332,0,0,1-.114-1,3.508,3.508,0,0,1-1.48.012,17.371,17.371,0,0,1-2.309-.879,16.193,16.193,0,0,1-.67-5.414c.23-2.568,1.111-4.837.933-7.63s-.766-7.051-.377-8.5.524-3.3,1.314-4.724.864-1.59,1.308-1.485,1.427.79,1.7.58.067-1.523.067-1.523"/></g></svg>