<svg xmlns="http://www.w3.org/2000/svg" width="692.675" height="351.48" viewBox="0 0 692.675 351.48"><defs><style>.a{fill:#0c0c0c;}</style></defs><path class="a" d="M441.537,1287.224c5.026-1.432,9.6-1.953,13.923-2.87.87-.183,1.729-.384,2.581-.61a32.363,32.363,0,0,0,4.836-1.674,23.653,23.653,0,0,1,6.684-1.792c10.975-1.392,23.614,3.175,33.988.786a19.405,19.405,0,0,0,6.8-2.94c-.6,5.781,6.68,1.52,12.449-2.161,2.84-1.81,5.315-3.483,6.3-3.746.011,9.126,17.643,8.093,23.218,8.145a79.929,79.929,0,0,1-15.282-2.558c-.56-.165-8.335-4.263-7.4-5.732a.586.586,0,0,1,.059-.072.274.274,0,0,1,.028-.026,1.819,1.819,0,0,1,1.067-.374c.138-.016.284-.029.447-.037q-1.873-.334-3.8-.63-1.074-.167-2.16-.323l-.362-.054q-2.17-.309-4.39-.592c-.407-.052-.818-.1-1.227-.153-6.581-.822-13.44-1.532-20.286-2.464l-.149-.019q-1.831-.248-3.657-.522c1.163-.75,12.54-1.382,13.226-2.363a.157.157,0,0,0-.022-.219c.074.078.154.151.237.223,2.173,1.894,6.863,1.248,11,.721,1.461-.184,2.851-.355,4.039-.394.224-.007,1.222.4,2.295.74a7.73,7.73,0,0,0,2.2.453c-.04,0,1.265-.436,2.361-.845a6.241,6.241,0,0,0,1.445-.646,9.609,9.609,0,0,0,2.112.337c1.237.094,2.71.106,3.993.092,1.726-.019,3.11-.088,3.115-.076a1.385,1.385,0,0,0,.446.394c2.822,1.718,15.625,1.548,18.254,1.855-.178-3.894-7.882-5.992-16.649-7.023-1.024-.12-2.061-.226-3.1-.319-3.779-.334-7.609-.493-11.008-.531a77.532,77.532,0,0,0-10.4.4c-.121.019-.237.038-.335.059a22.072,22.072,0,0,1,8.935-3.09c-5.678-1.244-11.517-2.836-17.381-3.7a48.015,48.015,0,0,0-11.41-.474c-3.466.318-6.9.906-10.325,1.546-6,1.12-11.992,2.4-18.114,2.666a127.872,127.872,0,0,1-23.889-1.643q-2.507-.37-4.976-.772c-4.326-.7-12.486-1.273-18.315-3.634-.149-.06-.3-.12-.446-.183-2.717-1.169-4.865-2.759-5.784-4.972l-.008-.019a6.254,6.254,0,0,1-.271-.8c9.644-3.455,20.463-4.149,30.912-5.013,3-.249,5.97-.511,8.87-.856,2.2-.263,4.43-.4,6.661-.56a58.347,58.347,0,0,0,10.485-1.414c.9-.233,1.814-.538,2.731-.852,4.178-1.432,8.406-3.049,11.694,1.239a1.192,1.192,0,0,1,.22-1.108,1.143,1.143,0,0,1,.538-.295c.661.7.3,2.172.489,3.575a3.149,3.149,0,0,0,1.013,2.058c.928.818,3.422.849,5.663.775,1.474-.05,2.84-.143,3.578-.094,4.26.292,8.391.417,12.374,1.836,1.1.392,3.178,1.817,5.317,2.845,2.034.979,4.123,1.594,5.485.624a2.573,2.573,0,0,0,.428-.381c.33-.373.04-1.36-.3-2.423-.438-1.376-.943-2.873-.306-3.331a.629.629,0,0,1,.149-.087c.01,0,.015-.011.025-.014h.015a3.347,3.347,0,0,1,1.242.25,3.443,3.443,0,0,1,1.88,2.364,3.053,3.053,0,0,0,1.992,1.506h.022a3.034,3.034,0,0,0,2.231-.75,22.408,22.408,0,0,0,2.86.786,44.666,44.666,0,0,0,6.282.555c.112.007.218.012.332.021,1.728.109,3.69.292,5.585.227a15.443,15.443,0,0,0,2.412-.259,10.273,10.273,0,0,0,1.065-.266,6.235,6.235,0,0,0,3.33-2.281c-3.492-.183-3.151-2.614-3.758-2.79.6.173,2.56.944,3.108,1.129-1.008-.339,4.781,3.569,3.861,2.511,1.05,1.21,3.089,1.035,2.885,1.311a14.482,14.482,0,0,1-2.865,1.153,8.306,8.306,0,0,0,3.919-1.176c1.543-.929,2.4-2.015,4.953-1.8-.487.891-.712,1.421-.9,1.762-.277.509-.465.59-1.308.776a264.328,264.328,0,0,1,29.795.357,31.046,31.046,0,0,0,4.081-.182,22.007,22.007,0,0,1,4.175-.1,11,11,0,0,1,1.823.61l.237.092a2.144,2.144,0,0,0,.445.767l.332.025a.825.825,0,0,0,.156-.435,6.522,6.522,0,0,0,2.456.625,2.638,2.638,0,0,0,.914-.658l.11-.107c-.012.037-.021.077-.032.114a1.975,1.975,0,0,0-.107.709l.725.047a1.811,1.811,0,0,0,.044-.7,2.514,2.514,0,0,0-.182-.625,18.885,18.885,0,0,1,2.83-2.712c2.752-1.5,7.161-1.644,10.179-1.739-.679,1.079-2.383,4.722-3.609,5.9a1.39,1.39,0,0,1-.522.352c10.643.487,23.369,2.361,35.049,1.457a47.188,47.188,0,0,0,15.316-3.487c.834,6.518-2.834,1.236-5.659,3.645a249.005,249.005,0,0,1,25.993,2.779c8.1,1.345,16.118,4.656,24.137,5.807,12.352,1.774,30.424-9.736,42.2-15.482.365-.176.723-.35,1.075-.515a1.347,1.347,0,0,0-.111.805.554.554,0,0,0,.205.333,2.169,2.169,0,0,0,1.562.113,1.264,1.264,0,0,1,.06-1.423c.831-1.361,3.659-2.805,7-4.12,5.736-2.257,12.954-4.131,14.049-4.525,2.854-1.028,10.95-3.624,13.969-5.677,3.606-2.454,3.44-5.509,4.226-9.55.091-.462.19-.935.311-1.425a1.579,1.579,0,0,0,.651.222,15.6,15.6,0,0,0,5.642-.591c2.094-.573,4.029-1.511,4.609-2.805a1.932,1.932,0,0,0,.164-1.035,3.928,3.928,0,0,0-2.229.187c-1.348.351-2.786.8-3.26.04.033-.048.069-.087.1-.132,4.22-5.8,14.851,3.96,18.038-2.925a45.618,45.618,0,0,0-7.453-2.088c3.461-2.026,6.861-5.5,10.422-6.448.248-.065.5-.12.745-.16,1.372-.22,3.194.65,4.856.958,1.591.295,3.038.076,3.8-2.107,1.21,5.09,4.046,4.091,8.054,3.532l1.433,1.437,3.032-2.468c2.909-1.172,5.337-4.621,8.269-5.441a8.067,8.067,0,0,1,2.745-.307c3.717.241,5.635,3.074,10.635-.526,2.165-1.558,4.223-3.243,6.3-4.913q1.328-1.07,2.676-2.116c1.24-.958,2.5-1.894,3.813-2.772,3.306-2.213,5.649-3.584,7.944-6.252.04-.045.08-.085.12-.132,2.461-2.91,3.951-5.417,6.693-7.645a19.26,19.26,0,0,1,1.887-1.354c3.7-2.331,7.9-3.936,11.914-5.831.937-.443,1.865-.9,2.772-1.393a29.188,29.188,0,0,0,6.087-4.223c.461-.427.911-.87,1.339-1.344a9.429,9.429,0,0,0-.962-.9,7.142,7.142,0,0,0-4.792-1.663c-3.192.054-6.566,1.9-9.7,3.572-1.9,1.014-3.886,3.131-5.944,4.4a6.556,6.556,0,0,1-2.4.973c-1.752.267-3.579-.483-5.514-.969a8.878,8.878,0,0,0-3.988-.247,30.906,30.906,0,0,0-6.909,2.475c-4.69,2.23-9.461,5.334-13.442,7.524-2.3,1.262-4.588,2.595-6.781,4.057-.873.583-1.734,1.181-2.57,1.811-1.29.973-3.817,3.932-5.85,5.817a8.189,8.189,0,0,1-2.081,1.547c-1.736.691-5-1.3-7.187-.344a2.638,2.638,0,0,0-.9.635,1.511,1.511,0,0,0-.348,1.1c.01.68.235,1.37.087,1.707a.327.327,0,0,1-.048.106c-.18.191.278,1.532.279,2.538a1.566,1.566,0,0,1-.168.809c-.164.266-9.4,1.254-10.795,1.564-1.3.291-2.644.566-3.993.837a127.542,127.542,0,0,0-15.506,3.7c-1.271.433-5.388,2.547-9.319,4.1-2.741,1.082-5.386,1.885-6.918,1.66a1.424,1.424,0,0,1-1.248-.823,4.838,4.838,0,0,1-.882,1.177c-2.333,2.366-7.429,3.813-9.2.841,3.747-1.48,7.575-2.907,11.528-4.894s3.513-1.209,6.9-4.2c3.9-3.444,2.662-3.49,7.759-4.811-.8.421-2.1,1.972-1.8,2.731.118.3.489.478,1.247.407.022,0,.039,0,.062,0,1.979-.217,1.143-1.984,1.083-2.75.005-.076.011-.149.017-.216.078-.25.44-.193,1.513.478-.219-.138-.209-.35-.048-.6a8.945,8.945,0,0,1,2.377-1.916c.241-.153.479-.3.7-.432.713-.427,1.291-.742,1.394-.8a1.845,1.845,0,0,0-.065,1.271l.014.047a1.335,1.335,0,0,1,.343-.654c1.492-1.761,7.25-4.222,7.684-4.41,2.394-1.039,5.689-2.058,8.778-3.477a20.27,20.27,0,0,0,5.97-3.894,10.191,10.191,0,0,0,1.692-2.205c-5.006,1.788-9.443,3.532-13.683,5.221-.37.147-.739.293-1.107.441-1.606.641-3.191,1.273-4.77,1.9-4.618,1.824-9.206,3.572-14.273,5.223a1.484,1.484,0,0,0,.336-2.12,5.081,5.081,0,0,0-.485-.747c-.1-.127-.2-.255-.315-.388a1.552,1.552,0,0,0-2.379.7,7.674,7.674,0,0,0-1.7,2.085,8.5,8.5,0,0,1-1.88,2.427c-2.655,1.771-7.122,1.558-10.192,2.541-4.752,1.52-9.386,3.916-13.98,5.868-16.752,7.121-33.455,14.339-50.731,20.118a8.96,8.96,0,0,0,2.24-4.28c-1.944-.326-8.1,3.8-4.021,4.866q-7.134,2.336-14.347,4.421c3.484-8.157,13.418-10.649,20.258-12.683.156-.045.317-.091.472-.138,8.563-2.53,17.749-4.789,25.812-8.166,3.617-1.516,7.966-2.607,12.21-4.61,4.476-2.114,9.349-4.406,14.31-6.32,5.4-2.085,22.474-4.508,23.028-10.676,1.024.019,1.511.194,1.47.52a1.684,1.684,0,0,1,1.4.1,3.717,3.717,0,0,0-.1,4.951c.8-.749,6.537-7.162,6.746-8.12.073-.335-2.12-1.671-1.664-2.525.017-.032.029-.058.045-.088.953-1.8.72-1.894.526-1.8.183-.154.582-.516,1.367-1.3,1.448-1.445,5.523-1.9,7.56-3.149a2.619,2.619,0,0,0-.845,2.914c2.277-4.454,6.737-7.086,9.711-11.673,1.41,3,4.421.6,6.426-.074.033-.011.067-.026.1-.039,2.994-1.057,6.563-4.128,9.636-5.673a18.636,18.636,0,0,0,2.979-1.847c1.919-1.458,3.282-3.071,5.422-4.965l.074-.068c.5-.7,1.03-1.39,1.573-2.063.606-.751,1.232-1.485,1.886-2.2l3.323-.889,3.339-.9a7.108,7.108,0,0,0,1.525-2.965c.688-2.292,1.049-4.951,3.468-6.866a17.789,17.789,0,0,1,4.991-2.291,7.322,7.322,0,0,0,.965.069q2.755,0,1.985-2.831a.575.575,0,0,1-.091.066c-.146.1-.134-.063-.021-.376.355-.982,1.631-3.364,1.62-3.386l0-.007c1.462-2.344,4.515-3.076,6.124-5.532a6.165,6.165,0,0,0,.911-2.3c-1.854,1.118-2.464-.615-3.276-2.43-.687-1.535-1.518-3.128-3.37-3.105-3.455.041-8.735,6.136-11.974,7.554a10.2,10.2,0,0,1-1.47.323c-2.321.413-6.475.988-6.538,1.039-.986.807-1.075,2.878-1.688,4.457a3.659,3.659,0,0,1-.8,1.313c-3.531,3.473-12.02,6.945-16.576,10,5.178-5.24,10.865-12.762,17.14-16.817.153-.1.3-.2.457-.3a27.358,27.358,0,0,1,2.95-1.54c3.243-1.5,5.44-2.353,5.243-7.912a10.015,10.015,0,0,0-1.041.344,9.644,9.644,0,0,0-2.574,1.5,32.2,32.2,0,0,0-3.344,3.4c-.2.212-.394.424-.6.639-3.415,3.543-5.62,4.672-9.57,6.658-2.75,1.383-5.476,2.186-7.845,5.465-.723,1-1.54,5.437-2.035,7.908a8.166,8.166,0,0,1-.41,1.674,3.2,3.2,0,0,0-.45-1.821,3.147,3.147,0,0,0-.8-.863c-.018.132-.288,1.071-.431,1.937-.138.842-.154,1.612.306,1.5-.425.107-1.163.293-1.94.514a11.137,11.137,0,0,0-2.82,1.078q-3.291-1.272-2.787,1.374a1.823,1.823,0,0,1-.685,2.046c-1.206.966-3.035,1.529-4.171,2.52-2.714,2.372-4.366,5.22-7.582,6.939-3.392,1.816-7.355,1.666-10.836,2.841-1.462.494-1.372,1.973-2.675,2.414-2.739.926-5.852,1.111-8.715,1.842a115.778,115.778,0,0,0-16.637,6.119c-4.394,1.875-27.064,11.988-29.083,7.8-1.807,2.841-5.257,8.461-8.3,3.611a2.271,2.271,0,0,1-.128,2.548c-5-1.1-1.478,4.119-5.382,4.062-1.125-4.425,3.189-11.6,6.658-15.362a17.321,17.321,0,0,1,9.135-5.192c3.282-.639,2.737-.559,3.924-.078.186.074,10.131-5.192,11.429-5.692,5.055-1.946,9.939-4.409,15-6.3,8.841-3.313,18.023-5.238,26.761-9.114,9.213-4.085,19.5-7.681,27.872-13.155,1.827-1.195,7.115-6.2,11.358-9.777,2.644-2.233,4.883-3.915,5.618-3.773-.808-.157,8.178-8.288,8.983-8.914,2.238-1.741,4.64-4.492,7.2-5.67.771-.355,1.842-.724,3.031-1.16a32.071,32.071,0,0,0,4.46-1.942c2.836-1.566,5.182-3.846,4.829-7.524-1.382,1.653-2.11-.625-2.516-1.6a2.284,2.284,0,0,0,.3.454,1.536,1.536,0,0,0,1.341.589c.644-.735-.958-3.861-1.736-3.982a1.431,1.431,0,0,0-.378.321,1.485,1.485,0,0,0-.175,1.432c-.357-.424-1.05-.347-1.856-.2a7.315,7.315,0,0,1-2.6.224c-.84-.164-1.549-.736-1.862-2.222-.322-1.525.865-2.772,2.375-3.889,1.678-1.237,3.754-2.314,4.617-3.423a2.747,2.747,0,0,0,.164-.233,4.831,4.831,0,0,0-3.828-.661,1.829,1.829,0,0,0-.142-1.763c-.011-.019-.022-.038-.034-.056.087.641-2.7,2.723-5.926,4.193-2.763,1.262-5.836,2.072-7.669,1.127,4.11-1.357,9.04-2.692,12.234-5.806a10.686,10.686,0,0,0,2.14-2.935,9.171,9.171,0,0,0,.391-.86c.6,1.064,1.868,1.389,3.266,1.276a9.261,9.261,0,0,0,4.54-1.715,2.463,2.463,0,0,0,1.027-1.361,1.118,1.118,0,0,0,.017-.114c.094-2.428-1.1-2.745-2.329-3.133a2.951,2.951,0,0,1-2.212-1.733c3.415-1.3,7.323-6.45,12.365-3.313-.106.106-.213.205-.319.3a6.9,6.9,0,0,1-1.2.853c-3.239,1.809-6.291.114-5.637,6.393.692-.589,1.184-.834,1.488-.753.274.074.4.413.354,1.035a9.7,9.7,0,0,1,2.285-1.858,73.1,73.1,0,0,1,9.1-4.5c1.346-.588,2.529-1.094,3.353-1.477a36.787,36.787,0,0,1,3.853-1.275,7.827,7.827,0,0,0,3.759-2.094,3.148,3.148,0,0,0,.632-1.3,4.069,4.069,0,0,0,.025-1.527c-.021-.125-.043-.255-.073-.387a4.094,4.094,0,0,0-1.258.138c-2.766.673-6.573,3.393-8.974,1.6-.047-.034-.094-.066-.139-.1a3.484,3.484,0,0,1-.567-.592,5.359,5.359,0,0,1,.7-.764c2.373-2.161,6.47-2.278,8.709-4.35l.051-.045.037-.034a4.941,4.941,0,0,0,1.466-3.379q-.89.376-1.777.767-.931.411-1.861.831c-6.457,2.917-12.9,6.127-19.848,7.545,4.965-4.591,6.4-6.939,12.712-10.763,2.847-1.725,5.411-3.316,8.214-4.668,1.053-.508,2.138-.986,3.287-1.418.151-.058.418-.157.764-.286.362-.136.814-.307,1.331-.505,1.083-.416,2.441-.95,3.818-1.529.468-.2.937-.4,1.4-.6a28.648,28.648,0,0,0,4.288-2.222c.662-.461,1.02-.864.885-1.155-.218-.471-.793-.694-1.646-.717-11.22-.3-20.94,8.529-30.254,13.467-5.638,2.988-11.566,5.129-16.926,8.5a55.021,55.021,0,0,1-19.244,7.323c-6.35,1.017-11.476,4.2-17.047,7.465-6.472,3.791-12.777,7.861-19.056,11.961-3.178,2.076-6.349,4.161-9.534,6.226-2.576,1.671-4.638,2.675-6.719,4.87a13.72,13.72,0,0,1-2.068,1.77c-3.326,2.348-7.688,3.641-11.122,5.539a148.507,148.507,0,0,1-15.8,7.641c-2.957,1.2-6.109,1.74-9.155,2.8q-2.924,1.012-5.9,1.872c-.171.37-.431.592-.606.406a.937.937,0,0,1-.142-.2c-1.784.5-3.578.972-5.382,1.39a8.612,8.612,0,0,1-5.068.1,4.905,4.905,0,0,1,2.494-1.882,2.752,2.752,0,0,0,1.008-.445.693.693,0,0,0,.117-.977l-5.108,1.182a1.135,1.135,0,0,1-.712.008.778.778,0,0,1-.168-1.145,2.245,2.245,0,0,1,1.129-.658c4.911-1.682,9.729-3.564,14.646-5.291,5.089-1.788,10.876-3.3,15.6-5.92,3.584-1.506,7.432-2.321,11.041-3.736a122.5,122.5,0,0,0,12.226-5.9,161.645,161.645,0,0,0,22.389-14.232c2.84-2.168,6.36-3.671,9.086-5.868,3.69-2.973,2.149-2.214,5.714-4.581,2.255-1.5,29.839-14.518,29.469-15.52-1.118-3.027-6.088,3.221-7.347-.958,6.05-3.328,17.944-6.241,21.927-10.642.962-1.063,1.225-5.358,2.836-7.318,2.975-3.622,7.856-5.02,10.6-9.07-1.394,3.757,6.826-3.7,8.479-4.876,4.183-2.972,5.042-3.288,7.223-7.81,1.532-3.176,6.876-14.961,6.859-19.424a3.428,3.428,0,0,0-.1-.914,4.137,4.137,0,0,0-.526.106,5.959,5.959,0,0,0-.95.35c-2.291,1.047-4.749,3.531-5.841,4.575.245-.235.63.172.878.763a2.793,2.793,0,0,1,.227,1.28,1.219,1.219,0,0,1-.293.731.74.74,0,0,1-.06.07.52.52,0,0,1-.527.067c-.575-.173-1.3-.873-1.58-.931a.092.092,0,0,0-.089.014c.048-.054-2.062,1.766-2.814,2.556-1.843,1.937-3.3,5.86-4.665,8.233-2.271,3.952-3.838,8.822-5.611,13.557-5.037-3.7-19.669,5.231-24.881,6.911-3.195,1.031-9.674,3.028-4.205-2.2,4.456-4.262,11.674-1.755,15.1-8.208-2.227,3.049-2.324-3.605-3.24-4.006-1.717-.75-6.109,2.491-8.412,3.458-10.546,4.428-20.8,8.183-30.49,14.14,7.607-14.429,33.324-17.557,46.321-27.17,4.328-3.2,15.575-7.141,18.723-11.351,1.261-1.686.4-5.539,1.477-7.492,1.862-3.384,6.062-5.619,9.34-7.542q-2.069,4.706-4.125,9.419c1.041-.716,2.282-1.448,3.551-2.212a31.074,31.074,0,0,0,5.64-4,8.816,8.816,0,0,0,1.656-2.438c.988-2,1.627-4.273,3.11-5.626,3.22-2.939,11.283-4.13,15.421-5.323a267.85,267.85,0,0,1,28.868-6.351c.582-.1,1.165-.2,1.747-.3,1.657-.289,4.289-.742,6.978-1.436a20.584,20.584,0,0,1,7.664-3.668,2.063,2.063,0,0,0-.122.636,7.107,7.107,0,0,0,1.142-.981,36.929,36.929,0,0,0-.325-3.944c-.085-1.408-2.068-1.77-1.812-3.616.128-.914,2.226-2.606,3.094-2.118.487-.043,1-.054,1.48-.1a10.08,10.08,0,0,1,1.96-1.213,2.926,2.926,0,0,0-.061-1.22c-2.31.62-4.618,1.192-6.927,1.733-2.079.677-4.243,1.259-6.408,1.84.211-.187.424-.373.637-.557-15.054,3.2-30.176,5.306-45.881,9.073q1.117-2.668,2.214-5.345c-4.321,2.948-7.744,5.986-12.281,7.791-5.545,2.2-11.967,3.042-17.752,4.591a229.4,229.4,0,0,0-38.193,13.384q.712-1.3-1.492-2.3c-2.991,7.993-17.2,10.848-24.627,14.254-10.6,4.862-21.186,9.776-31.652,14.932-10.976,5.41-21.836,11.071-32.4,17.248-4.5,2.632-8.846,5.982-13.493,8.3-1.831.915-10.128,2.712-10.328,3.342-2.187,2.2-7.059,3.864-10.168,4.8a65.739,65.739,0,0,1,5.136-7.868c-4.761,3.865-9.322,7.677-14.358,10.194-6.273,3.137-13.114,4.339-19.512,7.106-9.831,4.249-16.7,8.734-27.174,11.5-18.688,4.935-37.913,10.219-56.864,15.218,1.046-2.209,3.781-4.794,2.805-7.225,5.214,3.155-2.65-6.848-1.707-4.3-1.583,4.512-2.681,5.093-4.727,7.742-2.818,3.651-.058,3.378-3.953,5.7-2.7,1.609-7.251,1.721-10.408,2.369a138.636,138.636,0,0,1,7.706-14.493q2.269-3.766,4.653-7.459,4.361-3.254.958-7.128c-.786-4.543-4.165-9.641-5.769-14.017-1.646-4.489-2.614-9.382-4.9-13.526-3.959-7.162-10.879-15.64-17.417-18.985a5.113,5.113,0,0,1-1.509-1.127c-.06-.061-.114-.128-.172-.191-.072-.084-.143-.171-.213-.259a6.381,6.381,0,0,1-.48-.672c-.106-.165-.211-.339-.312-.522a6.636,6.636,0,0,1-2.518.556,8.427,8.427,0,0,1-2.7-.277c-.03-.007-.067-.019-.1-.028-2.58-.574-5.05-1.741-6.891-1.7l.008-.04a2.722,2.722,0,0,0-2.059.969c-.529-2.593-1.726-3.184-3.173-3.276a9.469,9.469,0,0,1-4.538-.237c-.029-.01-.056-.022-.085-.033-.077-.032-.157-.059-.234-.1a4.485,4.485,0,0,1-1.97-1.829c-.016-.028-.033-.054-.05-.08a7.985,7.985,0,0,1-.388-.723c4.785-3.993,11.645-5.319,13.6-12.049-4.716-1.8-7.835.648-12.324.074-.1-.014-.206-.041-.31-.063l-.012.043a9.824,9.824,0,0,1-4.186-1.567c0-.023,0-.043,0-.065-.05-.01-.1-.025-.147-.032-4.731-.6-9.607-.641-12.529,2.465-.014.014-.028.033-.041.047.052.344.118.7.211,1.081-6.892,12.141-15.663,22.557-25.252,32.211l-.072.073q-1.125,1.131-2.266,2.251c-.175.172-.348.348-.523.52-.043.041-.088.081-.131.122q-3.952,3.855-8.039,7.583-1.778.758-3.56,1.509c-4.582,3-9.384,5.719-14.171,8.583-.992.614-1.985,1.2-2.986,1.773a269,269,0,0,1-27.109,14c-10.519,5.355-21.6,8.841-32.8,12.058l-.1.03c-.178.051-.355.1-.533.153l-.205.058c-11.162,3.216-22.418,6.161-33.239,10.435-.131.052-.262.092-.394.143q-2.752,1.09-5.474,2.3c-.808-.129-1.562-.227-2.289-.306-5.663.973-11.274,1.381-17.058,4.589q-.811-2.591-1.62-5.184a15.536,15.536,0,0,1-9,6.427,31.854,31.854,0,0,0-7.008,3.858,2.878,2.878,0,0,0,1.918-.279c.479.475.962.932,1.445,1.39,7.077,3.39,16.242,13.239,21.661,17.743l.138.118a93.042,93.042,0,0,1,7.922,7.216,9.937,9.937,0,0,0,4.326,1.946c5.619.793,13.656-2.486,19.314-3.568-5.675,2.48-10.171,6.143-16.276,7.21a4.422,4.422,0,0,1,1.056.98c.172.171.33.318.5.479-.3.237-.6.479-.9.721-.875.714-1.693,1.422-2.483,2.117a58.127,58.127,0,0,0-5.066,5.144q-2.474.909-4.865,1.905c-.121.052-.237.109-.361.161q-3.188,1.342-6.287,2.88-.3.149-.593.3-1.16.591-2.3,1.217c-.224.124-.452.245-.674.37q-.717.4-1.423.819l-.251.15c-.534.317-1.057.644-1.582.972-2.172,1.426-4.587,4.081-6.951,4.953-.9.742-1.785,1.5-2.639,2.295-.809-.8-1.635-1.653-2.461-2.5-1.125-.578-2.3-2.125-3.578-3.543-1.978-1.8-3.772-3.01-5.081-2.669q5.15,4.753,10.3,9.5-1.342,1.3-2.589,2.685t-2.4,2.872a16.8,16.8,0,0,0-2.753-2.127,7.137,7.137,0,0,0-2.346-.564c1.4,1.286,2.8,2.587,4.2,3.871-.606.829-1.187,1.685-1.751,2.558-.41.7-.961,1.535-1.59,2.624a53.133,53.133,0,0,0-2.809,5.765,11.6,11.6,0,0,0-.465,5.666c.925,1.714,2.369,1.276,3.079,3.886.728,3.083-.626,7.809-.04,11.282,2.79.3,2.914-8.518,6.19-3.544-2.9,1.009-2.953,5.017-5.177,6.738-.6,3.45-.081,7.424-.131,10.3,0,.089-.007.176-.008.264a23.829,23.829,0,0,0,.965,4.518,3.313,3.313,0,0,0-1.394.926c-.491,4.194-1.151,8.371-.65,13.6-4.295-2.555-5.73-2.669-6.325-7.828.134,2.465-1.416,2.3-2.937,1.39a20.148,20.148,0,0,1-3.572-2.169c.647.207,1.023.208,1.143.015-.322-.439-.468-.819-.3-.981-.61.3-1.4.033-2.282-.542-4.6-2.317-13.765-10.391-15.246-11.429-.134-.094-.264-.193-.4-.288a11.155,11.155,0,0,0-2.4-1.277c-2.076-1.752-4.236-3.56-6.428-5.375-5.9-4.673-11.68-9.552-17.73-14.039a7.911,7.911,0,0,0,1.244,3.627c5.916,5.572,11.188,9.995,16.039,14.23l.613.54c1.593,1.395,3.144,2.782,4.655,4.18-.2-.173,1.29.048,2.333,1.1.731.738,1.62,2.509,2.7,3.838.27.281.538.573.807.859a24.916,24.916,0,0,0,3.633,2.533c1.1.278,2.189.513,3.945,2.88.055.058.109.106.164.164q1.117-3.989,4,.325a25.4,25.4,0,0,0-3.688,0c3.945,4.036,7.706,7.593,11.344,10.858,1.125.629,2.084.852,2.727.413a9.04,9.04,0,0,0,1.971,3.722c4.375,3.773,8.588,7.217,12.733,10.654l.127.1.127.107a235.422,235.422,0,0,1,20.605,18.751c-.18.128-.37.271-.563.421a4.741,4.741,0,0,0-2.085,3.01c.2.406.4.8.6,1.184a.556.556,0,0,0-.465.129,7.359,7.359,0,0,0,1.182,2.124l1.377,1.271c.771,1.182,1.553,2.31,2.326,3.479.044.07.094.139.138.209a38.428,38.428,0,0,1,5.919,14.1c.463.833,1.171,1.923,2.029,3.141a40.924,40.924,0,0,1,9.338,10.857,14.509,14.509,0,0,0,3.066,1.787c2.621.5,5.141,1.43,7.722,2.1a44.075,44.075,0,0,0,7.965.461q3.836-.671,7.63-1.16,1.266-.163,2.526-.31c.94-.226,1.875-.469,2.81-.724,2.256-.612,4.519-1.294,6.895-1.971" transform="translate(-297.047 -939.936)"/></svg>